<svg width="19" height="22" viewBox="0 0 19 22" fill="none" xmlns="http://www.w3.org/2000/svg">
<path d="M12.9624 18.1371L12.4052 18.5931C11.1824 19.5936 10.0202 20.0072 8.91875 19.8337C7.81728 19.6603 6.85661 18.8982 6.03674 17.5476L3.17236 12.829C2.35249 11.4783 2.0574 10.1717 2.28711 8.90901C2.51681 7.64634 3.24307 6.51473 4.46589 5.51418L9.82926 1.12565C10.1698 0.847016 10.449 0.887213 10.667 1.24624L17.9524 13.2481C18.1704 13.6071 18.1091 13.9259 17.7686 14.2046L15.8182 15.8004C15.4932 16.0664 15.2217 16.0198 15.0037 15.6608L14.49 14.8145L14.3972 14.8905C14.5071 15.4914 14.418 16.0889 14.1299 16.6829C13.8314 17.2597 13.4423 17.7445 12.9624 18.1371ZM12.4351 11.4294L9.275 6.22347C9.16084 6.03541 9.01089 6.01737 8.82514 6.16935L6.64264 7.95516C6.14733 8.36045 5.8717 8.76509 5.81577 9.16909C5.74946 9.556 5.88236 10.023 6.21446 10.5701L8.89203 14.981C9.22413 15.5281 9.56344 15.839 9.90996 15.9137C10.2461 15.9713 10.6618 15.7975 11.1571 15.3922L12.0162 14.6893C13.0842 13.8154 13.2239 12.7287 12.4351 11.4294Z" fill="white"/>
</svg>
