<svg width="166" height="164" viewBox="0 0 166 164" fill="none" xmlns="http://www.w3.org/2000/svg">
<path d="M49.4184 133.845L47.7922 136.682C47.0065 138.053 46.0875 138.831 45.0353 139.015C43.9831 139.199 42.8696 138.763 41.6948 137.707L34.6237 131.348C33.449 130.291 32.7631 129.109 32.5662 127.801C32.3693 126.493 32.6637 125.154 33.4494 123.783L35.0755 120.946C35.8513 119.593 36.7727 118.83 37.8398 118.659C38.902 118.458 40.0131 118.878 41.173 119.921L42.2214 120.864C42.5485 121.159 42.6027 121.496 42.3839 121.878L41.1307 124.065C40.9219 124.429 40.6539 124.464 40.3267 124.17L39.4122 123.347C38.9363 122.919 38.5321 122.74 38.1995 122.809C37.862 122.847 37.5342 123.144 37.2159 123.699L36.2015 125.469C35.8931 126.007 35.7735 126.491 35.8424 126.921C35.9064 127.321 36.1764 127.734 36.6522 128.162L43.4556 134.281C43.9315 134.709 44.3381 134.904 44.6756 134.865C45.0082 134.796 45.3286 134.493 45.6369 133.955L46.6514 132.185C46.9697 131.63 47.0968 131.152 47.0327 130.753C46.9638 130.323 46.6914 129.894 46.2155 129.466L45.301 128.643C44.9738 128.349 44.9147 128.02 45.1235 127.655L46.3767 125.469C46.5955 125.087 46.8685 125.044 47.1956 125.338L48.244 126.281C49.4039 127.324 50.0848 128.515 50.2866 129.853C50.4835 131.161 50.1941 132.492 49.4184 133.845Z" fill="white"/>
<path d="M60.6806 114.543L59.2939 116.683C59.0655 117.035 58.8022 117.064 58.5039 116.768L44.4232 102.805C44.125 102.509 44.0901 102.185 44.3185 101.833L45.7052 99.6929C45.9336 99.3404 46.1969 99.312 46.4951 99.6078L51.3094 104.382L51.3747 104.281C50.8471 103.151 50.9966 101.949 51.8232 100.673L52.3453 99.8675C54.0529 97.2324 56.0641 97.0625 58.3789 99.358L65.3234 106.244C65.6217 106.54 65.6511 106.873 65.4119 107.242L64.0414 109.357C63.813 109.709 63.5497 109.737 63.2515 109.442L56.4348 102.682C55.9803 102.231 55.5847 102.032 55.2478 102.084C54.9076 102.105 54.5634 102.384 54.2154 102.921L53.6281 103.828C52.8776 104.986 53.042 106.1 54.1213 107.17L60.5759 113.571C60.8741 113.866 60.909 114.19 60.6806 114.543Z" fill="white"/>
<path d="M77.3278 89.5883L75.756 91.7466C74.8259 93.0238 73.8235 93.7006 72.749 93.7772C71.6745 93.8537 70.6029 93.3101 69.5341 92.1465L65.8001 88.0811C64.7313 86.9174 64.1659 85.6787 64.104 84.3648C64.042 83.051 64.4761 81.7555 65.4063 80.4783L66.9781 78.32C67.8965 77.059 68.8997 76.3976 69.9877 76.3358C71.074 76.2431 72.1448 76.7712 73.2001 77.9201L76.9341 81.9855C77.9893 83.1344 78.5488 84.3813 78.6125 85.726C78.6744 87.0398 78.2462 88.3273 77.3278 89.5883ZM73.8796 88.8775L74.7803 87.6407C75.1571 87.1234 75.334 86.6639 75.3112 86.2622C75.3002 85.8444 75.0782 85.3998 74.6453 84.9285L71.0736 81.0398C70.6407 80.5685 70.2538 80.3502 69.9131 80.3851C69.5842 80.4037 69.2313 80.6718 68.8546 81.1891L67.9539 82.4259C67.5771 82.9432 67.4001 83.4027 67.4229 83.8044C67.4457 84.206 67.6736 84.6425 68.1065 85.1139L71.6782 89.0025C72.1111 89.4739 72.4921 89.7002 72.821 89.6815C73.1499 89.6629 73.5028 89.3948 73.8796 88.8775Z" fill="white"/>
<path d="M92.7301 69.1676L91.0406 71.235C90.0408 72.4585 88.9991 73.0811 87.9156 73.103C86.8321 73.1249 85.7832 72.5302 84.7688 71.3188L81.2249 67.0867C80.2105 65.8753 79.7058 64.6147 79.7107 63.3047C79.7156 61.9948 80.2179 60.7281 81.2177 59.5046L82.9073 57.4372C83.8944 56.2292 84.9361 55.622 86.0325 55.6154C87.1286 55.578 88.1774 56.1573 89.179 57.3534L92.7229 61.5855C93.7245 62.7816 94.2229 64.05 94.2182 65.3907C94.2133 66.7007 93.7172 67.9596 92.7301 69.1676ZM89.3018 68.2866L90.27 67.1019C90.675 66.6063 90.8763 66.1582 90.8739 65.7575C90.8841 65.3413 90.6838 64.8879 90.2729 64.3972L86.8831 60.3491C86.4722 59.8584 86.0947 59.6218 85.7506 59.6393C85.4192 59.6413 85.0509 59.8901 84.646 60.3856L83.6778 61.5704C83.2728 62.0659 83.0715 62.514 83.0739 62.9147C83.0763 63.3154 83.283 63.761 83.6939 64.2517L87.0837 68.2999C87.4946 68.7905 87.8658 69.0349 88.1972 69.0329C88.5287 69.0309 88.8969 68.7821 89.3018 68.2866Z" fill="white"/>
<path d="M108.058 51.0198L104.218 55.2317C103.948 55.5273 103.685 55.5084 103.43 55.1752L102.261 53.6516C102.128 53.477 102.063 53.3285 102.068 53.2059C102.062 53.0674 102.139 52.9095 102.301 52.7321L105.676 49.0301C106.337 48.3059 106.484 47.7058 106.119 47.2297L106.028 47.1107C105.736 46.7298 105.179 46.6677 104.359 46.9245L101.354 47.8098C100.35 48.1509 99.5041 48.2607 98.8156 48.1393C98.127 48.0179 97.4967 47.5842 96.9247 46.8383C96.0727 45.7274 95.6952 44.6367 95.7922 43.5661C95.8891 42.4956 96.4699 41.3766 97.5345 40.2091L100.91 36.507C101.18 36.2114 101.442 36.2303 101.698 36.5635L102.884 38.1109C103.018 38.2855 103.089 38.442 103.096 38.5805C103.09 38.7031 103.007 38.853 102.845 39.0304L100.036 42.1117C99.3753 42.8359 99.1973 43.3964 99.5016 43.7931L99.5929 43.9121C99.8606 44.2613 100.424 44.3006 101.284 44.0302L104.421 43.2195C105.462 42.8954 106.307 42.8162 106.955 42.982C107.591 43.1319 108.201 43.5877 108.785 44.3495C110.416 46.4761 110.174 48.6995 108.058 51.0198Z" fill="white"/>
<path d="M127.515 30.6466L122.79 35.2983C121.665 36.4068 120.554 36.9192 119.457 36.8356C118.361 36.7519 117.359 36.0639 116.45 34.7717L113.274 30.2568C112.365 28.9645 111.975 27.6731 112.105 26.3827C112.234 25.0923 112.862 23.8928 113.988 22.7843L115.676 21.1215C116.802 20.0129 117.913 19.5005 119.009 19.5842C120.105 19.6678 121.108 20.3558 122.017 21.6481L124.209 24.7643C124.451 25.1078 124.422 25.4269 124.123 25.7216L118.757 31.0047C118.586 31.1731 118.564 31.3473 118.69 31.5272L119.07 32.067C119.427 32.5741 119.778 32.851 120.125 32.8976C120.474 32.9138 120.876 32.6974 121.332 32.2483L125.651 27.9966C125.95 27.7019 126.226 27.7345 126.479 28.0944L127.618 29.7139C127.745 29.8938 127.801 30.0598 127.788 30.2117C127.777 30.3333 127.686 30.4782 127.515 30.6466ZM117.29 28.919L120.197 26.0565C120.354 25.9021 120.369 25.735 120.242 25.5551L119.414 24.3773C119.046 23.8538 118.694 23.577 118.359 23.5467C118.024 23.5165 117.629 23.7259 117.173 24.1749L116.275 25.0589C115.819 25.508 115.573 25.93 115.538 26.3251C115.502 26.7202 115.668 27.1794 116.036 27.7029L116.865 28.8807C116.991 29.0606 117.133 29.0734 117.29 28.919Z" fill="white"/>
</svg>
