<svg width="158" height="155" viewBox="0 0 158 155" fill="none" xmlns="http://www.w3.org/2000/svg">
<path d="M19.6302 51.9945L18.4673 51.5939C17.0113 51.0923 15.9746 50.297 15.3571 49.208C14.7585 48.1255 14.5899 46.8051 14.8511 45.2469L15.7639 39.8029C16.0252 38.2446 16.594 37.1783 17.4704 36.6039C18.3657 36.0361 19.5413 36.0029 20.9973 36.5045L22.1603 36.9052C22.7464 37.1071 23.2811 37.4373 23.7643 37.8959C24.2508 38.3347 24.5533 38.8562 24.672 39.4605L24.7855 39.4995L25.9066 32.8129C25.9761 32.3987 26.2094 32.26 26.6065 32.3968L29.0174 33.2273C29.4145 33.3641 29.5783 33.6396 29.5089 34.0539L26.2298 53.6109C26.1603 54.0251 25.9271 54.1638 25.53 54.027L23.119 53.1964C22.7219 53.0596 22.5581 52.7841 22.6276 52.3699L22.7913 51.3935L22.6778 51.3544C22.3805 51.8153 21.944 52.0927 21.3682 52.1864C20.7958 52.2604 20.2164 52.1965 19.6302 51.9945ZM23.4461 47.488L24.1307 43.405C24.382 41.906 23.8553 40.9317 22.5506 40.4822L21.2742 40.0425C20.6691 39.834 20.2205 39.8255 19.9284 40.017C19.6396 40.1887 19.4422 40.5902 19.3364 41.2214L18.4831 46.3103C18.3773 46.9415 18.4242 47.4375 18.6237 47.7983C18.8265 48.1395 19.2305 48.4142 19.8356 48.6227L21.1119 49.0624C22.4167 49.5119 23.1947 48.9871 23.4461 47.488Z" fill="white"/>
<path d="M48.1422 63.014L42.0056 60.5041C40.5432 59.9059 39.5014 59.0332 38.8801 57.886C38.2588 56.7388 38.1124 55.3925 38.441 53.847L39.589 48.4477C39.9176 46.9022 40.5673 45.8815 41.5379 45.3854C42.5086 44.8894 43.7252 44.9404 45.1876 45.5386L47.3812 46.4358C48.8436 47.034 49.8854 47.9067 50.5067 49.0539C51.128 50.2011 51.2743 51.5474 50.9457 53.0929L50.1534 56.8196C50.066 57.2304 49.828 57.3563 49.4393 57.1973L42.4697 54.3466C42.2476 54.2557 42.1136 54.3179 42.0679 54.5331L41.9306 55.1786C41.8017 55.7851 41.8284 56.2745 42.0109 56.6468C42.2159 57.0071 42.6147 57.3084 43.207 57.5507L48.816 59.8449C49.2047 60.0039 49.3533 60.2986 49.2618 60.729L48.85 62.6657C48.8043 62.8809 48.7247 63.0184 48.6114 63.0784C48.5207 63.1264 48.3643 63.1049 48.1422 63.014ZM43.0001 51.8523L46.7764 53.3969C46.98 53.4802 47.1047 53.4143 47.1504 53.1991L47.4499 51.7906C47.583 51.1646 47.5563 50.6752 47.3697 50.3224C47.1831 49.9697 46.7937 49.6722 46.2013 49.4299L45.0351 48.9529C44.4427 48.7106 43.9992 48.6674 43.7044 48.8233C43.4097 48.9792 43.1958 49.3701 43.0627 49.9961L42.7632 51.4046C42.7175 51.6198 42.7964 51.769 43.0001 51.8523Z" fill="white"/>
<path d="M62.9016 56.7584L61.8144 56.2506C61.5969 56.149 61.4527 56.0383 61.3818 55.9184C61.3289 55.807 61.332 55.635 61.3909 55.4024L61.8993 53.3958C62.0025 52.9886 62.2443 52.8739 62.6249 53.0517L63.7121 53.5595C63.9115 53.6526 64.0382 53.5925 64.0922 53.3792L64.7922 50.6165C64.8953 50.2094 65.1462 50.0989 65.5449 50.2851L67.8282 51.3515C68.2087 51.5292 68.3474 51.8216 68.2442 52.2288L67.5443 54.9915C67.4902 55.2047 67.5719 55.3621 67.7894 55.4637L69.9095 56.4539C70.2901 56.6316 70.4288 56.9241 70.3256 57.3312L69.8172 59.3378C69.7632 59.5511 69.6786 59.685 69.5634 59.7396C69.4713 59.7833 69.3165 59.7544 69.099 59.6528L66.9789 58.6626C66.7614 58.5611 66.6257 58.6169 66.5716 58.8302L64.9432 65.2571C64.791 65.8581 64.8073 66.3536 64.9922 66.7435C65.182 67.114 65.5669 67.4347 66.1468 67.7055L67.234 68.2133C67.6146 68.391 67.7533 68.6834 67.6501 69.0906L67.1417 71.0972C67.0877 71.3104 67.0031 71.4444 66.8879 71.499C66.7958 71.5427 66.641 71.5138 66.4235 71.4122L64.7654 70.6378C63.3339 69.9692 62.3226 69.0416 61.7316 67.8549C61.1587 66.6767 61.0638 65.3315 61.447 63.8193L63.1196 57.2179C63.1736 57.0047 63.101 56.8515 62.9016 56.7584Z" fill="white"/>
<path d="M81.7884 79.2982L81.1517 78.9619C79.7547 78.2238 78.7955 77.2513 78.2741 76.0443C77.7526 74.8373 77.7167 73.4764 78.1662 71.9617L79.7366 66.6698C80.1861 65.1551 80.9105 64.196 81.9099 63.7924C82.9093 63.3888 84.1075 63.5561 85.5045 64.2941L91.632 67.5313C92.021 67.7368 92.1558 68.0409 92.0363 68.4436L88.042 81.9034C87.9225 82.306 87.6682 82.4046 87.2792 82.1991L85.051 81.0219C84.6797 80.8257 84.5537 80.5263 84.6732 80.1237L84.9549 79.1746L84.8488 79.1185C84.5006 79.5334 84.0391 79.7443 83.4643 79.7512C82.8952 79.7388 82.3366 79.5878 81.7884 79.2982ZM86.0815 75.3782L87.814 69.5399C87.8766 69.329 87.8018 69.1674 87.5896 69.0553L85.0962 67.738C84.5303 67.4391 84.0926 67.3631 83.783 67.5101C83.4792 67.6379 83.2362 68.0085 83.0541 68.6221L81.5862 73.5689C81.4041 74.1824 81.3882 74.6842 81.5384 75.074C81.6943 75.4447 82.0552 75.7796 82.6211 76.0785L83.6025 76.597C84.8227 77.2417 85.649 76.8354 86.0815 75.3782Z" fill="white"/>
<path d="M105.243 72.3346L106.08 69.8621C106.208 69.4832 106.444 69.3949 106.789 69.5972L109.041 70.9174C109.386 71.1197 109.498 71.4009 109.376 71.7608L108.53 74.2617C108.402 74.6406 108.165 74.7289 107.82 74.5266L105.569 73.2064C105.224 73.0041 105.115 72.7135 105.243 72.3346ZM99.7171 88.6754L104.215 75.3754C104.35 74.9775 104.589 74.8797 104.935 75.0821L107.16 76.387C107.522 76.5995 107.636 76.9046 107.502 77.3025L103.004 90.6025C102.92 90.8488 102.823 90.9845 102.711 91.0097C102.616 91.0451 102.474 91.0071 102.284 90.8958L100.059 89.5908C99.6964 89.3784 99.5825 89.0732 99.7171 88.6754Z" fill="white"/>
<path d="M115.833 99.3485L113.677 97.9861C113.322 97.7617 113.218 97.4526 113.364 97.0588L120.262 78.4674C120.408 78.0736 120.659 77.989 121.014 78.2133L123.169 79.5757C123.524 79.8001 123.629 80.1092 123.483 80.503L116.584 99.0944C116.438 99.4882 116.188 99.5729 115.833 99.3485Z" fill="white"/>
<path d="M131.251 109.767L126.56 106.529C126.231 106.302 126.146 105.994 126.307 105.606L127.04 103.832C127.124 103.628 127.214 103.512 127.31 103.484C127.414 103.437 127.565 103.481 127.762 103.618L131.886 106.463C132.693 107.02 133.21 107.021 133.439 106.466L133.497 106.328C133.68 105.884 133.518 105.226 133.011 104.354L131.197 101.142C130.556 100.082 130.152 99.1383 129.986 98.3111C129.82 97.4839 129.917 96.6359 130.276 95.7671C130.81 94.4732 131.508 93.7313 132.369 93.5416C133.23 93.3519 134.311 93.7058 135.611 94.6031L139.735 97.4486C140.064 97.6758 140.148 97.9835 139.988 98.3717L139.243 100.174C139.159 100.377 139.065 100.502 138.961 100.549C138.865 100.578 138.718 100.524 138.52 100.388L135.088 98.0194C134.282 97.4627 133.783 97.4155 133.592 97.8776L133.535 98.0163C133.367 98.4229 133.549 99.0831 134.081 99.9967L135.888 103.381C136.53 104.49 136.909 105.44 137.026 106.233C137.15 107.008 137.029 107.839 136.663 108.726C135.639 111.203 133.836 111.55 131.251 109.767Z" fill="white"/>
</svg>
