<svg width="176" height="82" viewBox="0 0 176 82" fill="none" xmlns="http://www.w3.org/2000/svg">
<path d="M12.6126 55.6612L10.2288 56.5668C9.83623 56.716 9.58767 56.5872 9.48316 56.1804L4.99678 38.7175C4.89227 38.3107 5.03633 38.0327 5.42895 37.8835L12.2717 35.2838C13.73 34.7297 14.9682 34.7165 15.9861 35.244C16.999 35.7522 17.6996 36.7617 18.0878 38.2726L18.8044 41.062C19.1926 42.573 19.0917 43.8976 18.5017 45.036C17.9068 46.155 16.8802 46.9916 15.4219 47.5456L11.8883 48.8881C11.664 48.9733 11.5792 49.1225 11.6339 49.3356L13.0448 54.8272C13.1493 55.234 13.0052 55.512 12.6126 55.6612ZM11.0317 45.6735L14.0044 44.5441C14.6027 44.3168 14.991 44.0311 15.1693 43.6869C15.3427 43.3234 15.3523 42.8413 15.198 42.2408L14.5709 39.8001C14.4117 39.1802 14.1782 38.7906 13.8704 38.6311C13.5577 38.4522 13.1022 38.4764 12.5039 38.7037L9.53125 39.8331C9.3256 39.9113 9.25014 40.0569 9.30488 40.27L10.6411 45.4711C10.6958 45.6841 10.826 45.7516 11.0317 45.6735Z" fill="white"/>
<path d="M39.0367 46.2887L36.4868 47.0803C34.9778 47.5487 33.7254 47.4996 32.7296 46.9329C31.7338 46.3661 31.0718 45.31 30.7436 43.7645L29.597 38.3649C29.2688 36.8193 29.4282 35.5082 30.075 34.4316C30.7219 33.3549 31.7998 32.5824 33.3087 32.114L35.8587 31.3224C37.3486 30.8599 38.5935 30.9218 39.5935 31.5081C40.6084 32.0688 41.2778 33.1122 41.6019 34.6382L42.7485 40.0378C43.0725 41.5638 42.9036 42.8778 42.2418 43.98C41.595 45.0566 40.5266 45.8262 39.0367 46.2887ZM36.3519 43.7126L37.8131 43.259C38.4244 43.0693 38.8271 42.8087 39.0214 42.4773C39.2348 42.1399 39.2751 41.6582 39.1421 41.0322L38.0454 35.8674C37.9125 35.2413 37.6853 34.8426 37.3639 34.6713C37.0616 34.4941 36.6048 34.5003 35.9936 34.6901L34.5323 35.1437C33.9211 35.3334 33.5184 35.594 33.3241 35.9254C33.1297 36.2568 33.0991 36.7355 33.232 37.3616L34.3287 42.5264C34.4617 43.1525 34.6793 43.5541 34.9816 43.7314C35.2839 43.9086 35.7407 43.9024 36.3519 43.7126Z" fill="white"/>
<path d="M61.0165 24.3658L63.8433 23.6749C64.0764 23.6179 64.2435 23.6489 64.3447 23.768C64.4459 23.887 64.4469 24.0716 64.3478 24.3217L61.5725 31.7461L61.5926 31.8644L66.8346 37.8839C66.9846 38.0526 67.0245 38.2277 66.9542 38.4092C66.8805 38.5709 66.7174 38.6827 66.4648 38.7444L63.9586 39.3569C63.6283 39.4376 63.3787 39.4576 63.2099 39.4167C63.0605 39.3711 62.8863 39.2391 62.6873 39.0207L57.8655 33.3298C57.637 33.0571 57.5817 32.7318 57.6996 32.3538L60.1261 25.1994C60.2728 24.7529 60.5696 24.475 61.0165 24.3658ZM58.1592 40.7743L55.6822 41.3797C55.2742 41.4794 55.035 41.3222 54.9646 40.9082L51.6424 21.3584C51.5721 20.9444 51.7409 20.6875 52.1489 20.5878L54.626 19.9824C55.034 19.8827 55.2732 20.0398 55.3435 20.4539L58.6657 40.0036C58.7361 40.4177 58.5672 40.6746 58.1592 40.7743Z" fill="white"/>
<path d="M88.3641 34.3094L81.8405 35.4923C80.2858 35.7742 79.0315 35.5754 78.0776 34.8957C77.1236 34.2161 76.5453 33.0928 76.3426 31.5259L75.6344 26.0515C75.4318 24.4846 75.6996 23.2078 76.4381 22.2213C77.1765 21.2348 78.323 20.6006 79.8777 20.3187L82.2097 19.8959C83.7643 19.614 85.0186 19.8128 85.9726 20.4924C86.9265 21.1721 87.5049 22.2953 87.7076 23.8623L88.1963 27.6408C88.2502 28.0573 88.0705 28.3031 87.6573 28.378L80.2481 29.7215C80.0119 29.7643 79.908 29.8948 79.9362 30.113L80.0209 30.7676C80.1004 31.3824 80.2861 31.8055 80.5778 32.0368C80.8867 32.2447 81.356 32.2916 81.9857 32.1774L87.9485 31.0962C88.3617 31.0212 88.5966 31.2019 88.653 31.6383L88.907 33.6019C88.9353 33.8201 88.9066 33.9877 88.821 34.1047C88.7526 34.1983 88.6003 34.2666 88.3641 34.3094ZM79.921 27.1926L83.9355 26.4646C84.152 26.4254 84.2461 26.2967 84.2179 26.0785L84.0331 24.6504C83.951 24.0157 83.7654 23.5926 83.4762 23.3811C83.187 23.1697 82.7276 23.121 82.0978 23.2352L80.858 23.46C80.2283 23.5742 79.8022 23.7834 79.5797 24.0877C79.3573 24.3919 79.2871 24.8614 79.3692 25.4961L79.5539 26.9242C79.5821 27.1424 79.7045 27.2318 79.921 27.1926Z" fill="white"/>
<path d="M102.888 32.0262L100.352 32.2934C99.9345 32.3374 99.7089 32.1501 99.6752 31.7315L98.5498 17.7366C98.5162 17.318 98.7082 17.0866 99.1259 17.0426L101.662 16.7754C102.08 16.7314 102.305 16.9187 102.339 17.3373L102.418 18.3241L102.538 18.3116C102.738 17.808 103.104 17.3773 103.637 17.0196C104.19 16.6597 104.834 16.4411 105.57 16.3635L106.406 16.2755C108.136 16.0931 109.43 16.6001 110.289 17.7963C110.862 16.4492 111.975 15.6886 113.626 15.5146L114.491 15.4234C116.022 15.2621 117.21 15.5591 118.053 16.3147C118.916 17.0681 119.41 18.2323 119.537 19.8072L120.321 29.5558C120.355 29.9744 120.163 30.2058 119.745 30.2498L117.209 30.517C116.791 30.561 116.566 30.3737 116.532 29.9551L115.762 20.386C115.711 19.748 115.546 19.3131 115.266 19.0812C114.985 18.8293 114.527 18.7369 113.89 18.804L113.144 18.8826C111.772 19.0272 111.147 19.8671 111.271 21.4021L111.997 30.433C112.031 30.8516 111.829 31.084 111.391 31.1301L108.885 31.3942C108.467 31.4382 108.242 31.2509 108.208 30.8323L107.438 21.2631C107.387 20.6252 107.212 20.1913 106.913 19.9615C106.632 19.7097 106.173 19.6173 105.536 19.6843L104.611 19.7818C103.239 19.9264 102.614 20.7563 102.736 22.2714L103.464 31.3322C103.498 31.7508 103.306 31.9821 102.888 32.0262Z" fill="white"/>
<path d="M139.692 29.2208L137.023 29.2974C135.443 29.3427 134.211 28.9579 133.325 28.143C132.439 27.328 131.972 26.131 131.923 24.5517L131.752 19.0344C131.702 17.4551 132.095 16.2334 132.928 15.3691C133.762 14.5049 134.968 14.0501 136.548 14.0048L139.217 13.9282C140.776 13.8834 141.999 14.2785 142.885 15.1135C143.791 15.9278 144.268 17.1146 144.316 18.6739L144.488 24.1912C144.536 25.7505 144.134 26.9725 143.281 27.8573C142.447 28.7216 141.251 29.1761 139.692 29.2208ZM137.491 26.0126L139.02 25.9687C139.66 25.9504 140.106 25.8075 140.358 25.5402C140.629 25.2723 140.755 24.8185 140.736 24.1788L140.572 18.9014C140.552 18.2617 140.398 17.8159 140.11 17.5641C139.842 17.3116 139.388 17.1946 138.748 17.213L137.219 17.2568C136.579 17.2752 136.133 17.418 135.882 17.6854C135.63 17.9527 135.514 18.4062 135.534 19.0459L135.698 24.3234C135.717 24.9631 135.861 25.4091 136.129 25.6615C136.397 25.9139 136.851 26.031 137.491 26.0126Z" fill="white"/>
<path d="M159.321 29.169L156.773 29.0793C156.353 29.0645 156.145 28.8471 156.15 28.4271L156.296 14.3879C156.301 13.9679 156.513 13.7653 156.932 13.7801L159.481 13.8698C159.9 13.8846 160.108 14.1019 160.104 14.5219L160.093 15.5119L160.213 15.5161C160.664 14.4516 161.649 13.9461 163.168 13.9996L164.128 14.0333C167.266 14.1438 168.818 15.8289 168.784 19.0887L168.682 28.8682C168.678 29.2882 168.456 29.4904 168.016 29.475L165.497 29.3863C165.078 29.3716 164.87 29.1542 164.874 28.7342L164.974 19.1347C164.981 18.4948 164.846 18.0399 164.569 17.77C164.312 17.4809 163.864 17.3251 163.224 17.3026L162.145 17.2646C160.766 17.216 160.068 17.9517 160.052 19.4716L159.957 28.5612C159.953 28.9811 159.741 29.1837 159.321 29.169Z" fill="white"/>
</svg>
