<svg width="102" height="102" viewBox="0 0 102 102" fill="none" xmlns="http://www.w3.org/2000/svg">
<path d="M28.2242 60.4227L22.9307 62.5366C22.5592 62.6849 22.2752 62.5735 22.0787 62.2023L21.1803 60.5054C21.0774 60.311 21.0443 60.1636 21.0812 60.0632C21.1087 59.9452 21.2339 59.8417 21.4568 59.7527L26.1095 57.8947C27.0196 57.5312 27.3343 57.0844 27.0536 56.5541L26.9834 56.4216C26.7588 55.9973 26.1628 55.7429 25.1954 55.6581L21.6651 55.3013C20.4746 55.22 19.516 55.0032 18.7895 54.651C18.063 54.2987 17.4798 53.7072 17.04 52.8764C16.3849 51.6391 16.2466 50.5916 16.625 49.7339C17.0034 48.8762 17.9263 48.1543 19.3937 47.5684L24.0464 45.7104C24.4179 45.5621 24.7019 45.6735 24.8984 46.0447L25.8108 47.7681C25.9137 47.9625 25.9515 48.1187 25.924 48.2368C25.8871 48.3372 25.7572 48.4318 25.5343 48.5208L21.6617 50.0673C20.7516 50.4307 20.4135 50.8334 20.6474 51.2753L20.7176 51.4079C20.9235 51.7967 21.5334 52.035 22.5473 52.1226L26.2035 52.5897C27.4313 52.6989 28.3807 52.9408 29.0514 53.3153C29.7129 53.6721 30.2682 54.2748 30.7174 55.1232C31.9714 57.4917 31.1403 59.2582 28.2242 60.4227Z" fill="white"/>
<path d="M54.0242 51.2206L47.7367 53.3241C46.2383 53.8253 44.8996 53.8337 43.7206 53.3493C42.5416 52.8648 41.6103 51.9103 40.9268 50.4859L38.5385 45.5093C37.8549 44.0848 37.7392 42.8575 38.1913 41.8273C38.6434 40.7972 39.6187 40.0315 41.1171 39.5302L43.3646 38.7783C44.863 38.277 46.2017 38.2686 47.3807 38.7531C48.5597 39.2375 49.491 40.192 50.1746 41.6165L51.823 45.0514C52.0047 45.43 51.8964 45.686 51.4981 45.8193L44.3572 48.2082C44.1295 48.2844 44.0633 48.4216 44.1585 48.62L44.4441 49.215C44.7123 49.774 45.0303 50.1384 45.398 50.3084C45.776 50.4539 46.2685 50.4252 46.8755 50.2222L52.6224 48.2995C53.0207 48.1663 53.315 48.298 53.5054 48.6947L54.362 50.4798C54.4572 50.6781 54.479 50.8382 54.4275 50.9601C54.3862 51.0576 54.2518 51.1445 54.0242 51.2206ZM43.2539 45.9093L47.1231 44.6148C47.3317 44.545 47.3885 44.411 47.2933 44.2126L46.6702 42.9144C46.3933 42.3374 46.0754 41.9729 45.7163 41.821C45.3573 41.6691 44.8743 41.6947 44.2673 41.8977L43.0724 42.2975C42.4655 42.5005 42.095 42.7605 41.9609 43.0774C41.8268 43.3943 41.8982 43.8412 42.1751 44.4182L42.7982 45.7165C42.8933 45.9148 43.0452 45.9791 43.2539 45.9093Z" fill="white"/>
<path d="M76.3495 44.8844L69.9512 46.6216C68.4264 47.0357 67.083 46.9696 65.9209 46.4234C64.7587 45.8772 63.8653 44.8785 63.2405 43.4273L61.0578 38.3572C60.433 36.9059 60.3695 35.6819 60.8673 34.685C61.3651 33.6881 62.3764 32.9827 63.9012 32.5686L66.1883 31.9476C67.7131 31.5336 69.0566 31.5997 70.2187 32.1459C71.3808 32.6921 72.2743 33.6908 72.899 35.142L74.4056 38.6415C74.5717 39.0272 74.4521 39.2752 74.0467 39.3852L66.7799 41.3583C66.5482 41.4212 66.4759 41.5537 66.5629 41.7558L66.8239 42.362C67.0691 42.9314 67.3725 43.3107 67.7341 43.4998C68.1071 43.6652 68.6025 43.6641 69.2201 43.4964L75.0684 41.9084C75.4737 41.7984 75.7633 41.9454 75.9373 42.3496L76.7203 44.1682C76.8073 44.3703 76.8223 44.5303 76.7653 44.6484C76.7198 44.7428 76.5812 44.8215 76.3495 44.8844ZM65.7715 39.0162L69.7089 37.9471C69.9213 37.8894 69.9839 37.7596 69.8969 37.5575L69.3275 36.2349C69.0744 35.647 68.771 35.2678 68.4173 35.0971C68.0636 34.9264 67.5779 34.9249 66.9603 35.0926L65.7443 35.4228C65.1267 35.5905 64.7438 35.8278 64.5957 36.1347C64.4476 36.4417 64.5001 36.8891 64.7531 37.4769L65.3225 38.7995C65.4095 39.0016 65.5592 39.0738 65.7715 39.0162Z" fill="white"/>
</svg>
