<svg width="73" height="71" viewBox="0 0 73 71" fill="none" xmlns="http://www.w3.org/2000/svg">
<path d="M16.1652 38.2346L15.2552 39.0168C15.0732 39.1733 14.9165 39.2553 14.7852 39.2629C14.669 39.2574 14.5276 39.1683 14.361 38.9955L12.9244 37.5052C12.633 37.2028 12.6465 36.9147 12.965 36.6409L13.875 35.8587C14.0418 35.7153 14.0489 35.5644 13.8962 35.406L11.9183 33.3541C11.6268 33.0517 11.6479 32.7571 11.9815 32.4703L13.8925 30.8275C14.211 30.5538 14.516 30.5681 14.8075 30.8704L16.7854 32.9223C16.9381 33.0807 17.1054 33.0817 17.2874 32.9253L19.0619 31.3999C19.3804 31.1261 19.6854 31.1404 19.9769 31.4428L21.4135 32.9331C21.5662 33.0915 21.6393 33.2393 21.6329 33.3765C21.6277 33.4862 21.5342 33.6193 21.3522 33.7758L19.5777 35.3011C19.3957 35.4576 19.381 35.615 19.5337 35.7734L24.135 40.5468C24.5653 40.9932 24.9837 41.2259 25.3904 41.2449C25.7832 41.2496 26.2222 41.0433 26.7076 40.6261L27.6176 39.8439C27.9361 39.5701 28.241 39.5844 28.5325 39.8868L29.9691 41.3771C30.1218 41.5355 30.1949 41.6833 30.1885 41.8205C30.1834 41.9302 30.0898 42.0633 29.9078 42.2198L28.52 43.4127C27.3219 44.4427 26.0976 44.9421 24.8474 44.911C23.6122 44.8668 22.4533 44.2831 21.3707 43.16L16.6445 38.257C16.4918 38.0986 16.332 38.0911 16.1652 38.2346Z" fill="white"/>
<path d="M44.0479 30.9285L41.9294 32.5536C40.6758 33.5153 39.4276 33.945 38.1849 33.8426C36.9422 33.7403 35.7939 33.1006 34.7399 31.9235L31.0576 27.8112C30.0036 26.6341 29.5376 25.471 29.6596 24.3217C29.7816 23.1725 30.4694 22.1171 31.7231 21.1554L33.8415 19.5303C35.0793 18.5808 36.3262 18.1647 37.5822 18.2819C38.8408 18.3721 39.9904 18.9982 41.0311 20.1604L44.7134 24.2727C45.754 25.4349 46.2121 26.6041 46.0876 27.7804C45.9655 28.9297 45.2857 29.979 44.0479 30.9285ZM40.2003 29.7706L41.4143 28.8394C41.9221 28.4498 42.1924 28.0791 42.2253 27.7271C42.274 27.363 42.0849 26.9426 41.6579 26.4658L38.1357 22.5323C37.7088 22.0555 37.2975 21.8054 36.9019 21.7822C36.5222 21.7467 36.0784 21.9238 35.5706 22.3133L34.3567 23.2445C33.8489 23.6341 33.5785 24.0048 33.5457 24.3568C33.5128 24.7087 33.7099 25.1231 34.1368 25.5999L37.659 29.5334C38.086 30.0102 38.4893 30.2663 38.869 30.3017C39.2488 30.3372 39.6925 30.1601 40.2003 29.7706Z" fill="white"/>
</svg>
